<svg width="64" height="64" viewBox="0 0 64 64" fill="none" xmlns="http://www.w3.org/2000/svg">
<circle cx="32" cy="32" r="29" stroke="white" stroke-width="6"/>
<path d="M45.8374 32.5L48.7249 29.6124C48.9081 29.4293 48.9997 29.2061 48.9997 28.9447C48.9997 28.6832 48.9081 28.4601 48.7249 28.2769L47.3894 26.9414C47.2062 26.7582 46.9831 26.6666 46.7216 26.6666C46.4602 26.6666 46.237 26.7582 46.0539 26.9414L43.1663 29.8289L40.2788 26.9414C40.0956 26.7582 39.8725 26.6666 39.6111 26.6666C39.3496 26.6666 39.1265 26.7582 38.9433 26.9414L37.6078 28.2769C37.4246 28.4601 37.333 28.6832 37.333 28.9447C37.333 29.2061 37.4246 29.4293 37.6078 29.6124L40.4953 32.5L37.6078 35.3875C37.4246 35.5707 37.333 35.7938 37.333 36.0552C37.333 36.3167 37.4246 36.5398 37.6078 36.723L38.9433 38.0585C39.1265 38.2417 39.3496 38.3333 39.6111 38.3333C39.8725 38.3333 40.0956 38.2417 40.2788 38.0585L43.1663 35.171L46.0539 38.0585C46.237 38.2417 46.4594 38.3333 46.7216 38.3333C46.9839 38.3333 47.2062 38.2417 47.3894 38.0585L48.7249 36.723C48.9081 36.5398 48.9997 36.3167 48.9997 36.0552C48.9997 35.7938 48.9081 35.5707 48.7249 35.3875L45.8374 32.5V32.5Z" fill="white"/>
<path d="M34.2772 20C33.9014 20 33.5754 20.1303 33.3004 20.3909L26.0744 27.2369H20.3895C20.0128 27.2369 19.6877 27.3672 19.4126 27.6278C19.1375 27.8884 19 28.1972 19 28.5533V36.4467C19 36.8028 19.1375 37.1116 19.4126 37.3722C19.6877 37.6328 20.0136 37.7631 20.3895 37.7631H26.0744L33.3004 44.6091C33.5754 44.8697 33.9005 45 34.2772 45C34.6539 45 34.9789 44.8697 35.254 44.6091C35.5291 44.3484 35.6667 44.0405 35.6667 43.6836V21.3164C35.6667 20.9603 35.5291 20.6516 35.2549 20.3909C34.9807 20.1303 34.6548 20 34.2781 20H34.2772Z" fill="white"/>
</svg>
