<svg width="64" height="64" viewBox="0 0 64 64" fill="none" xmlns="http://www.w3.org/2000/svg">
<circle cx="32" cy="32" r="29" stroke="white" stroke-width="6"/>
<path d="M34.2772 20C33.9014 20 33.5754 20.1303 33.3004 20.3909L26.0744 27.2369H20.3895C20.0128 27.2369 19.6877 27.3672 19.4126 27.6278C19.1375 27.8884 19 28.1972 19 28.5533V36.4467C19 36.8028 19.1375 37.1116 19.4126 37.3722C19.6877 37.6328 20.0136 37.7631 20.3895 37.7631H26.0744L33.3004 44.6091C33.5754 44.8697 33.9005 45 34.2772 45C34.6539 45 34.9789 44.8697 35.254 44.6091C35.5291 44.3484 35.6667 44.0405 35.6667 43.6836V21.3164C35.6667 20.9603 35.5291 20.6516 35.2549 20.3909C34.9807 20.1303 34.6548 20 34.2781 20H34.2772Z" fill="white"/>
<path d="M42.367 35.4292C42.952 34.5283 43.2445 33.555 43.2445 32.5083C43.2445 31.4617 42.952 30.485 42.367 29.5767C41.782 28.6683 41.0087 28.0283 40.0445 27.6567C39.907 27.5883 39.7345 27.5533 39.5287 27.5533C39.1712 27.5533 38.8612 27.6808 38.5995 27.935C38.3379 28.1908 38.207 28.5025 38.207 28.8742C38.207 29.1633 38.2895 29.4075 38.4554 29.6067C38.6212 29.8058 38.8195 29.9783 39.0537 30.1225C39.287 30.2667 39.5212 30.425 39.7554 30.5975C39.9895 30.77 40.1887 31.0133 40.3537 31.33C40.5187 31.6467 40.6012 32.0392 40.6012 32.5067C40.6012 32.9742 40.5187 33.3667 40.3537 33.6833C40.1887 34 39.9895 34.2442 39.7554 34.4158C39.5212 34.5875 39.287 34.7467 39.0537 34.8908C38.8195 35.035 38.6204 35.2075 38.4554 35.4067C38.2904 35.6058 38.207 35.8508 38.207 36.1392C38.207 36.5108 38.3387 36.8233 38.5995 37.0783C38.8612 37.3317 39.1704 37.4608 39.5287 37.4608C39.7345 37.4608 39.907 37.4267 40.0445 37.3575C41.0079 36.9717 41.782 36.3283 42.367 35.4267V35.4292Z" fill="white"/>
<path d="M47.229 38.434C48.4099 36.6219 49.0003 34.6428 49.0003 32.4992C49.0003 30.3564 48.4099 28.3789 47.229 26.5643C46.0482 24.7522 44.4855 23.4311 42.5417 22.6051C42.3618 22.5356 42.1809 22.5 42.0001 22.5C41.6393 22.5 41.3264 22.6331 41.0623 22.8994C40.7982 23.1656 40.667 23.4802 40.667 23.8449C40.667 24.391 40.9378 24.8039 41.4795 25.0846C42.2566 25.4908 42.7848 25.7986 43.0624 26.0089C44.0902 26.7652 44.8925 27.7133 45.4687 28.8546C46.0448 29.996 46.3333 31.2103 46.3333 32.5C46.3333 33.7881 46.0448 35.0032 45.4687 36.1454C44.8925 37.2867 44.0902 38.2348 43.0624 38.9911C42.7848 39.2014 42.2566 39.5092 41.4795 39.9154C40.9378 40.1961 40.667 40.6082 40.667 41.1551C40.667 41.5189 40.799 41.8344 41.0623 42.1006C41.3256 42.3669 41.6452 42.5 42.0203 42.5C42.1868 42.5 42.3609 42.4644 42.5409 42.3949C44.4846 41.5681 46.0482 40.2487 47.2282 38.4349L47.229 38.434Z" fill="white"/>
</svg>
