<svg width="32" height="32" viewBox="0 0 32 32" fill="none" xmlns="http://www.w3.org/2000/svg">
<path d="M18.5825 15.9984L26.4582 8.13991C26.8031 7.79497 26.9969 7.32714 26.9969 6.83932C26.9969 6.3515 26.8031 5.88366 26.4582 5.53872C26.1133 5.19378 25.6456 5 25.1578 5C24.6701 5 24.2023 5.19378 23.8574 5.53872L16 13.4156L8.14259 5.53872C7.7977 5.19378 7.32993 5 6.84218 5C6.35443 5 5.88666 5.19378 5.54177 5.53872C5.19688 5.88366 5.00313 6.3515 5.00313 6.83932C5.00313 7.32714 5.19688 7.79497 5.54177 8.13991L13.4175 15.9984L5.54177 23.857C5.3701 24.0273 5.23385 24.2299 5.14086 24.4531C5.04787 24.6763 5 24.9157 5 25.1576C5 25.3994 5.04787 25.6388 5.14086 25.862C5.23385 26.0853 5.3701 26.2879 5.54177 26.4581C5.71204 26.6298 5.91461 26.7661 6.13781 26.8591C6.361 26.9521 6.6004 27 6.84218 27C7.08397 27 7.32337 26.9521 7.54656 26.8591C7.76975 26.7661 7.97233 26.6298 8.14259 26.4581L16 18.5813L23.8574 26.4581C24.0277 26.6298 24.2302 26.7661 24.4534 26.8591C24.6766 26.9521 24.916 27 25.1578 27C25.3996 27 25.639 26.9521 25.8622 26.8591C26.0854 26.7661 26.288 26.6298 26.4582 26.4581C26.6299 26.2879 26.7662 26.0853 26.8591 25.862C26.9521 25.6388 27 25.3994 27 25.1576C27 24.9157 26.9521 24.6763 26.8591 24.4531C26.7662 24.2299 26.6299 24.0273 26.4582 23.857L18.5825 15.9984Z" fill="white"/>
</svg>
