<svg width="36" height="36" viewBox="0 0 36 36" fill="none" xmlns="http://www.w3.org/2000/svg">
<path fill-rule="evenodd" clip-rule="evenodd" d="M18 1.5C8.8875 1.5 1.5 8.8875 1.5 18C1.5 27.1125 8.8875 34.5 18 34.5C27.1125 34.5 34.5 27.1125 34.5 18C34.5 8.8875 27.1125 1.5 18 1.5ZM19.5 24C19.5 24.3978 19.342 24.7794 19.0607 25.0607C18.7794 25.342 18.3978 25.5 18 25.5C17.6022 25.5 17.2206 25.342 16.9393 25.0607C16.658 24.7794 16.5 24.3978 16.5 24V19.5H12C11.6022 19.5 11.2206 19.342 10.9393 19.0607C10.658 18.7794 10.5 18.3978 10.5 18C10.5 17.6022 10.658 17.2206 10.9393 16.9393C11.2206 16.658 11.6022 16.5 12 16.5H16.5V12C16.5 11.6022 16.658 11.2206 16.9393 10.9393C17.2206 10.658 17.6022 10.5 18 10.5C18.3978 10.5 18.7794 10.658 19.0607 10.9393C19.342 11.2206 19.5 11.6022 19.5 12V16.5H24C24.3978 16.5 24.7794 16.658 25.0607 16.9393C25.342 17.2206 25.5 17.6022 25.5 18C25.5 18.3978 25.342 18.7794 25.0607 19.0607C24.7794 19.342 24.3978 19.5 24 19.5H19.5V24Z" fill="white"/>
</svg>
