<svg width="32" height="32" viewBox="0 0 32 32" fill="none" xmlns="http://www.w3.org/2000/svg">
<path d="M18.4347 15.4982L27.3843 6.56808C27.7763 6.17611 27.9964 5.64447 27.9964 5.09014C27.9964 4.5358 27.7763 4.00416 27.3843 3.61219C26.9924 3.22021 26.4609 3 25.9066 3C25.3523 3 24.8208 3.22021 24.4289 3.61219L15.5 12.5631L6.57113 3.61219C6.17921 3.22021 5.64765 3 5.09339 3C4.53913 3 4.00757 3.22021 3.61565 3.61219C3.22373 4.00416 3.00355 4.5358 3.00355 5.09014C3.00355 5.64447 3.22373 6.17611 3.61565 6.56808L12.5653 15.4982L3.61565 24.4284C3.42057 24.6219 3.26573 24.8521 3.16007 25.1058C3.0544 25.3594 3 25.6315 3 25.9063C3 26.1811 3.0544 26.4532 3.16007 26.7069C3.26573 26.9605 3.42057 27.1907 3.61565 27.3843C3.80914 27.5794 4.03933 27.7342 4.29296 27.8399C4.54659 27.9456 4.81863 28 5.09339 28C5.36815 28 5.64019 27.9456 5.89382 27.8399C6.14745 27.7342 6.37764 27.5794 6.57113 27.3843L15.5 18.4333L24.4289 27.3843C24.6224 27.5794 24.8526 27.7342 25.1062 27.8399C25.3598 27.9456 25.6318 28 25.9066 28C26.1814 28 26.4534 27.9456 26.707 27.8399C26.9607 27.7342 27.1909 27.5794 27.3843 27.3843C27.5794 27.1907 27.7343 26.9605 27.8399 26.7069C27.9456 26.4532 28 26.1811 28 25.9063C28 25.6315 27.9456 25.3594 27.8399 25.1058C27.7343 24.8521 27.5794 24.6219 27.3843 24.4284L18.4347 15.4982Z" fill="white"/>
</svg>
