<svg width="32" height="32" viewBox="0 0 32 32" fill="none" xmlns="http://www.w3.org/2000/svg">
<path d="M17.8782 15.9989L23.606 10.2836C23.8568 10.0327 23.9977 9.69246 23.9977 9.33769C23.9977 8.98291 23.8568 8.64266 23.606 8.3918C23.3552 8.14093 23.015 8 22.6602 8C22.3055 8 21.9653 8.14093 21.7145 8.3918L16 14.1204L10.2855 8.3918C10.0347 8.14093 9.6945 8 9.33977 8C8.98504 8 8.64485 8.14093 8.39402 8.3918C8.14319 8.64266 8.00227 8.98291 8.00227 9.33769C8.00227 9.69246 8.14319 10.0327 8.39402 10.2836L14.1218 15.9989L8.39402 21.7142C8.26917 21.838 8.17007 21.9853 8.10244 22.1477C8.03482 22.31 8 22.4842 8 22.66C8 22.8359 8.03482 23.01 8.10244 23.1724C8.17007 23.3347 8.26917 23.4821 8.39402 23.6059C8.51785 23.7308 8.66517 23.8299 8.8275 23.8975C8.98982 23.9652 9.16392 24 9.33977 24C9.51562 24 9.68972 23.9652 9.85204 23.8975C10.0144 23.8299 10.1617 23.7308 10.2855 23.6059L16 17.8773L21.7145 23.6059C21.8383 23.7308 21.9856 23.8299 22.148 23.8975C22.3103 23.9652 22.4844 24 22.6602 24C22.8361 24 23.0102 23.9652 23.1725 23.8975C23.3348 23.8299 23.4822 23.7308 23.606 23.6059C23.7308 23.4821 23.8299 23.3347 23.8976 23.1724C23.9652 23.01 24 22.8359 24 22.66C24 22.4842 23.9652 22.31 23.8976 22.1477C23.8299 21.9853 23.7308 21.838 23.606 21.7142L17.8782 15.9989Z" fill="white"/>
</svg>
