<svg width="32" height="32" viewBox="0 0 32 32" fill="none" xmlns="http://www.w3.org/2000/svg">
<path d="M19.3477 15.9986L26.5075 8.85447C26.821 8.54089 26.9972 8.11558 26.9972 7.67211C26.9972 7.22864 26.821 6.80333 26.5075 6.48975C26.1939 6.17617 25.7687 6 25.3253 6C24.8819 6 24.4566 6.17617 24.1431 6.48975L17 13.6505L9.8569 6.48975C9.54337 6.17617 9.11812 6 8.67471 6C8.2313 6 7.80606 6.17617 7.49252 6.48975C7.17898 6.80333 7.00284 7.22864 7.00284 7.67211C7.00284 8.11558 7.17898 8.54089 7.49252 8.85447L14.6523 15.9986L7.49252 23.1427C7.33646 23.2975 7.21259 23.4817 7.12805 23.6846C7.04352 23.8875 7 24.1052 7 24.3251C7 24.5449 7.04352 24.7626 7.12805 24.9655C7.21259 25.1684 7.33646 25.3526 7.49252 25.5074C7.64731 25.6635 7.83147 25.7874 8.03437 25.8719C8.23727 25.9565 8.4549 26 8.67471 26C8.89452 26 9.11215 25.9565 9.31505 25.8719C9.51796 25.7874 9.70211 25.6635 9.8569 25.5074L17 18.3466L24.1431 25.5074C24.2979 25.6635 24.482 25.7874 24.6849 25.8719C24.8878 25.9565 25.1055 26 25.3253 26C25.5451 26 25.7627 25.9565 25.9656 25.8719C26.1685 25.7874 26.3527 25.6635 26.5075 25.5074C26.6635 25.3526 26.7874 25.1684 26.8719 24.9655C26.9565 24.7626 27 24.5449 27 24.3251C27 24.1052 26.9565 23.8875 26.8719 23.6846C26.7874 23.4817 26.6635 23.2975 26.5075 23.1427L19.3477 15.9986Z" fill="white"/>
</svg>
